<svg xmlns="http://www.w3.org/2000/svg" width="400" height="238.6"><g fill-rule="evenodd">
<path d="M51.8 45.2C46.4 48 42.6 57 39.3 75.4A123 123 0 0 1 36 90.3c-.7 2.6-.8 3.2-.6 3.9.2.7.2.8-.3.8-.8 0-1.2 1-1 2.2.2.8.2.9-.4.9-.4 0-.7.3-1.4 1.7a28.5 28.5 0 0 1-6.1 7.6c-.1 0-1-4.1-1.8-9.1-1.8-10.4-1.8-10-2.2-10-.2 0-.3-.7-.4-2.8 0-1.5-.3-3.9-.6-5.2l-1-5.5c-.3-1.8-.7-3.2-.8-3.2a4 4 0 0 1-1.2-.6c-1.2-.8-1.5-.7-3.5 1.5-1.8 2-3.1 3.8-3.6 5.3l-.6 1.1c-.5.5-2.2 6.3-2.8 9.3l-.6 2.9.4 1.8c.6 2.2.6 2 0 2-.4 0-.7 0-.7-.3l-.3 1.8v3l.2.9c.1.3 0 .4-.2.4-.6 0-.7 2-.2 3.9l.5 1.6h-.6c-.5 0-.5 0-.7 4a276 276 0 0 1-.3 10.1l-.1 1c-.5.2-.4 19.5.1 24.6 3 30.4 12.2 54.7 26 68.1a32 32 0 0 0 9 6.9c2.8.4 5 1.2 5 1.9 0 .6 0 .6-.5.5-1.2-.4-.1.1 2 1 1.5.5 2.7.8 3.7.9.8 0 2.1.3 3 .5 1.6.5 2.2.6 10.6.6h8.8l3.4-.9c10.2-2.5 18-6.2 38.1-18.2 3.5-2 8.4-4.9 11.1-6.3 11.9-6.3 11.3-5.8 12.6-11.8l1-4.7-.5-.4-1.3-.7c-1.1-.3-6-.6-5.2-.3.3.2 0 .3-1.4.3-1 0-3 .1-4.4.3a185.6 185.6 0 0 1-5.3.9c.4.1-.2.2-1.5.2-1.1 0-2.1 0-2.2-.2 0 0-.8-.2-1.7-.2H114l1.3.2c2.2.4 1.7.5-3 .5h-4.7v-.8c0-.8 0-.8-1.1-1.1a14.7 14.7 0 0 1-9.7-7.9l-.6-1.3.1 1.3c.2 1.4.2 1.4-.4 1.4h-.7v-5.2c0-3 .2-4.7.3-4 .1 1 .1 1.1.2.3l.5-3.6a40.6 40.6 0 0 0 .6-4.4c0 .3.5-.6 1-2.2 4-12 10-20.2 27.7-38.8a83.8 83.8 0 0 0 13.9-16c2.4-4.1 2.2-8.3-.4-10.3l-.9-.6-5.5 1-5.5 1-2 1.3c-4.8 3.4-11.8 10.2-20.2 19.8-9.4 10.8-12.8 13.2-15.4 10.8-3.3-3.3 0-11.4 15-36C119 65.8 122.5 56 119 50.7c-3.4-5-11.2-1-20.2 10.3a146.7 146.7 0 0 0-20 35.2c-4.4 9.7-5.8 12-8.3 14-3.4 2.4-7.3 1.7-9.4-1.6-.5-.8-.8-1-1.2-1-.6 0-.6-.2-.6-1.5s0-1.4-.6-1.4h-.5l-.2-6.7a232.5 232.5 0 0 1 1-30.4c.4-6.8.4-17.2 0-18.9-1-3.7-3.9-5.2-7-3.6m286.7-.3c-3.5 1-4.2 8.2-2.7 28.7.8 10.8 1 16.7.6 22.4-.1 3-.2 6.2-.1 7.1l.2 1.7h-.8c-.8-.2-1.1.5-.8 2 .1.8 0 .8-.4.8s-.7.3-1 .8c-1.2 2-3 3.4-4.8 3.7l-1 .2.9.4c.9.4 1.5 1.9.6 1.6-5.4-2.2-9-6.3-11.9-13.4-.3-.9-.8-1.5-1-1.6A136.5 136.5 0 0 0 306 76.7c-10.8-19.2-23.4-31-29.1-27.2-5.8 3.8-2.3 15.8 11 37 17.5 28.3 20.9 36.5 16.3 39.9-2.2 1.6-4.2.3-12.4-8.5-18.2-19.5-26.9-26.5-33-26.5-3.3 0-5 1.8-5.3 5.6-.3 5.1 2.7 9.7 12.6 18.9 21 19.5 31.4 36.5 32.5 53l.3 4.3c.4 1.8.4 2-.2 2-.3 0-.6-.2-.6-.3 0-.2-.3.3-.6 1-1.9 4.6-7.5 8-13.3 8.1l-1 .2c0 .2.5.3 1 .3 3.4.1 1.2.4-3.1.4s-5.2 0-5.2-.3-1-.6-2-.6c-.4 0-.3.1.3.4l.9.3h-1.6c-1.4 0-1.6 0-1.7-.4-.1-.5-1.3-.6-7.2-.9l-3.5-.2c-4.2-.6-8.6 2.4-8 5.3.9 4.7 7.2 9.5 19.5 14.7 9.3 4 11.2 5 15.9 7.6a295 295 0 0 0 10.8 5.9c.3.4 9.6 4.6 12.5 5.7a49.1 49.1 0 0 0 55-12 47 47 0 0 0 8.7-11.9l1-3c1-2.3 1.1-2.3.7-.3-.3 1.1.3.2 1.4-2.3.6-1.3 1-2.5 1-2.7 0-.2.1-1.3.5-2.5l.5-2.1v1.2l.1 1.1.4-.8c1-2.4 2.2-6.3 2.2-7.6 0-1 0-1.2.3-1 .6.4 1.4-3.2 1.4-5.8 0-2 0-2.1.3-1.3l.3.8.3-1.1.3-2.5c0-1 0-1.3.2-1 .2.2.2.2.2-.2 0-.3 0-.6-.2-.6-.1 0-.2-.7-.2-1.8V163l.4 1.1.4 1 .3-1.5.3-3.2c0-1 0-1.5.2-1.4.2 0 .3 0 .3-.3 0-.2-.1-.3-.3-.3-.1 0-.2-1-.2-2.4 0-2.2 0-2.3.3-1.2.3 1 .3 1 .5.4.3-1.8.6-7.2.7-12.5 0-3.2 0-5.2.2-4.6l.2-4.5c0-3.6 0-5.5-.2-5.5s-.3-2-.3-5.6a126.7 126.7 0 0 0-.7-13.5c0-.1-.2-.3-.4-.3-.3 0-.3-.6-.3-4.4 0-6.3-.1-8-.9-8-.5 0-.5 0-.5-2.3 0-2.4 0-2.4.6-.5l.3 1-.2-1.5c0-1-.2-1.7-.4-1.8-.2-.2-.3-.8-.3-2 0-3.7-2.3-10.8-4.7-14.6-.7-1-3.5-3.1-4.3-3.1-1.2 0-4 3.8-3.6 5l-.1.5a31.6 31.6 0 0 0-1.4 8.6c-.5.3-.6 2.6-.2 4.6l.4 2c0 .2-1.2 0-1.2-.2l-.7 4.2a100 100 0 0 1-2.1 11.2l-2.2-1.6a43.7 43.7 0 0 0-2.5-2.2c.3 0 .1-.3-.7-1.4l-1.4-2.2c-.3-.6-.6-.8-1-.8-.5 0-.6-.1-.6-1.4-.1-1.2-.2-1.4-.7-1.4-.4-.1-.5-.2-.5-1.4 0-.7-.3-2.1-.6-3.2-1-3-1.9-7.7-3.3-16-3.8-22.3-9.5-33.2-16.2-31m-81 1.2c-20.7 6.4-41.2 23.6-55 46.3l-1.9 3 .7.1c7 2 25.4-3.9 36.6-11.5l2-1.4 7.5-12.2c4.1-6.7 7.5-12 7.6-12 .8.7-2.1 9.6-4.4 13.4l-.6 1.1.7-.8c3.1-3.5 7.6-12.7 6.2-12.7-.5 0-.6.3.2-2.8l.7-2.5.1 1.9.1 1.9.4-2c.6-2.7 1-7.8.7-9.1l-.1-1.1-1.5.4m-239 23.3-.5.5.7.5.8.5-.2-.9-.2-1-.6.4m4.7 23.9c0 .4 0 .5-.5.5-.6 0-.6 0-.6-2.2v-2.2l.5 1.6.6 2.3m43.6 20.5 2 .6-1.8.1c-2.2.1-2.4 0-2.4-.8 0-.7 0-.7 2.2 0M88.1 128c0 .1-.3.3-.6.3h-.6v-4.9l.6 2.1.6 2.5m219.3 0c0 .2-.3.3-.6.3-.6 0-.6 0-.6-1.9v-1.8l.6 1.6.6 1.9m-203.3 83.8c.6.7.8.5-2.1 2-2.9 1.4-2.7 1.4-2.7.7 0-.5.4-.9 2-2 2.3-1.5 2-1.4 2.8-.7m-40 15.3h1-1" fill="#747c35"/>
<path d="M131.3 45.8c0 .7 5.6 12.8 8 17A63.3 63.3 0 0 0 184.8 97l4.1 1v.7c0 .7-.2.7-1.3.8-20.6 1-37 11.5-47.8 30.5-4 7-9.6 20.5-8.3 20.2l2.5-.5a39.7 39.7 0 0 0 7-2c1.3 0 9.5-3.6 13.7-6.1a101 101 0 0 0 27.6-25.4c9.8-11.6 11.4-15.1 10-21-1-4.3-2.8-7-12.8-19C164.1 57.7 150.4 48.7 134 46c-2.7-.4-2.6-.4-2.6-.1m67.6 53.8c.5 1.3 5.8 9.2 9.5 14 15.1 20.1 32 32.1 50.4 36l2.7.6c.5.2.5.1-.3-2.2-11-30.4-27.7-45.4-53.8-48-6.2-.7-8.7-.8-8.5-.4" fill="#ac84ac"/>
<path d="M169.6 42v21.4l-9.6-6.9c-9.6-6.8-9.6-6.8-9.6-6 0 .7 0 .8 1.6 1.5 9.7 4.8 23 17.5 35.3 33.6 6.8 8.9 7.2 14.8 1.6 22.6l-1.2 1.9-.4.6-.3.3c.1-.2 0-.3 0-.2a40 40 0 0 1-7.3 9c-.2.6-.7 1.2-1 1a25.7 25.7 0 0 1-2.9 3.1 193.5 193.5 0 0 1-8.9 9c0 .1-.3.7-.9 1.4-2.1 2.5-2.1 2.5 1.7-.4l1.9-1.4V153l.2 20.6 7.8-5.9 8.2-6.1c.3-.3 1.4-4.8 5.2-22.4l4.8-22h.7c.7 0 .8 0 .8.8 1.7 22.1 8.5 40 19.2 50.3a30 30 0 0 0 6.8 5.2c.1 0 .5-8.9.8-19.7l.8-19.8c0-.2 2.8 1.7 7.7 5.2 1.4 1 1.1.5-.5-1l-1-1.4c.2-.1.1-.1 0 0-.2 0-.4 0-.6-.3a99 99 0 0 1-18.5-18l-.5-.6c0-.1 0-.3-.2-.3-.5-.2-.8-.6-.7-1a28.6 28.6 0 0 1-4.6-5.6c-.8-1.1-1-1.5-.5-1.2.2.1.2 0 .1 0 0-.2-.2-.3-.3-.3-.1.1-.4-.2-.6-.5l-.3-.7a96.5 96.5 0 0 1-5.6-8.9c0-.2.7-.2 1.9-.2h1c-.7 0-.8-.1-.7-.6 0-.4 0-.6-.2-.6-.4 0-1.7-1.5-2-2.2l-.2-.7h1c.9.1 2-.7 1.7-1.2l.5-2.1c3.1-9.4 16.1-23.2 35.4-37.4 2.5-1.8 2.9-2.2 2.9-2.8 0-.8.5-1.2-8 5l-7.2 5.2-.7-18.6-.7-20.6-.2-2-1.2 1c-13 10.8-22 30-24.5 52.4-.4 3.3-.3 3.2-1 3.2-.8 0-.8 0-1.1-4.1-2-23.2-11.1-42.4-24.4-51.5l-1.4-1v21.4m-115.8-.7c-.3.3-.2 1.3 0 1.4 0 0 .2-.3.2-.7v-.8l-.2.1m280.5 2.2c-.6 2-.6 2 0 2s.6-.1.7-1.5c.1-2.1 0-2.3-.7-.5m-275.2-.2c0 .5 0 .7.2.5V43c-.1-.2-.2 0-.2.4m77.3 1.4c0 .7 0 .7 2.5 1.4 3 .7 3 .7 3 0-.1-.7-.3-.7-2.3-1.2l-2.6-.7c-.5-.1-.6 0-.6.5m118.6 0v.7l1.8.1c3.3.2 3.7 0 1.2-.7a121 121 0 0 1-2.6-.7c-.3 0-.4 0-.4.6m-125.3 0c0 .4 1.2 4.7 1.3 4.8H132.4l-1.3-2.5a28 28 0 0 0-1.3-2.2m124 1.2c-.1.8.6 1.3 1.1.9.3-.2.2-.2-.3-.2s-.7-.2-.7-.7l-.1-.6v.6m90.1 0 .8.8.8.7-.7-.8c-.7-.7-.9-.8-.9-.7m-10.2 6-.1 5.5-.5-3.4-.6-3.5v8.5h1.2v4.2l.2-5.4V47.4c-.1-.5-.2 1.5-.2 4.6m-59.2-4.4c0 .7-.2.7 2.5 0l2.1-.5h-4.6v.5m-215.3.8c0 1.3 0 2 .2 2.3.3.3.3-.5 0-2-.1-1-.2-1-.2-.3m185 .5c0 .6 0 .7.4.6a121.1 121.1 0 0 1 4.5-1.2h-4.9v.6m28.2 4.6c-.7 4.7-.7 4.5 0 4.5h.6v-8.4l-.6 4m-150.9.6v2.4h.6c.7 0 .7.1 0-2.5l-.6-2.2v2.3m212.7-1.5v.5c.2-.3.2-.6 0-.9v.4m-274.5.8c0 .4 0 .6.1.4V53v.5m43.8 1.8-.9 1 1-1 .8-.8c0-.2-.2 0-1 .8m16.8.2c0 .5.1.7.2.4v-1c-.1-.2-.2 0-.2.6m137 1.6c-.6 2.2-.6 2 0 2s.6 0 .5-1.6c-.1-2.4-.1-2.4-.6-.4m77.2-.5c0 .4 0 .6.1.4V56v.5M60 56.8v.4c.1-.2.1-.6 0-.8v.4m60.1 2.6h.8c.3-.1 0-.2-.4-.2s-.6 0-.4.2m-59.9.7c0 .5 0 .7.1.5v-.9l-.1.4m274.5.3v.4c.1-.2.1-.6 0-.8v.4m.3 2.5v2c0 .1.4-3 .3-3.5 0-.2-.2.4-.3 1.5M59.3 64.4c0 1.8 0 1.8.7 1.9.6 0 .6 0 0-.1-.5-.1-.6-.2-.6-1.9l-.1-1.8v1.9m1.1-1c0 .5 0 .7.1.5.1-.2.1-.6 0-.8v.4m214.2.8 1.1 4.3c.1.4 1.3.6 1.3.2 0-.3-2.4-4.7-2.4-4.5M221 68.7l-1.3 1.3 1.4-1.3a20 20 0 0 0 1.3-1.3c0-.2-.2 0-1.4 1.3m114.3-.8.2.6v-.6l-.1-.6c-.2 0-.2.3-.1.6M15 68.3c0 .4 0 .6.1.4v-.9l-.1.5m358.6 0c0 .6.3.8 1.7 1.8 1 .6 1.6 1.2 1.6 1.3-.1 0 0 .2.3.1.4 0 3.8 2.2 3.8 2.5l.5.3c.9.2-.1-3-1.4-4.4l-.9-1h-2l-2.2.1.1-.7c.1-.6 0-.6-.7-.7-.7 0-.8 0-.8.7M59.5 73.4v5.1h.5c.7 0 .7.4 0-5.5l-.5-4.6v5m274.4 2.2v5.8h1.2v22.5l.2-11a282.2 282.2 0 0 0-.2-14c-.1.3-.3-1.3-.7-4.3l-.4-4.8v5.8M37.1 72.5v2h1.4l-.5-1.6-.7-2-.1 1.6m180.8-1-.8 1 .9-.9c.8-.8 1-1 .8-1l-.9 1m-197.3 1c0 1.8 0 1.9.6 1.9.7 0 .7 0 0-2l-.6-1.7v1.8m335-.3v2.3l.2 1.6c0-.1.3-.3.6-.3l.6-.1-.6-2c-.4-1-.7-1.7-.8-1.5m-345.5 3c-.6 3.2-.6 3.1 0 3.3.7 0 .8-.7.7-3.7l-.1-2.5-.6 3m362-.1.1 2c.2-.2.2-3.8 0-4v2m-352 0c.2 1 .4 1 .4.4V75l-.3-.3c-.1 0-.2.2 0 .6m15.3 3.5v2.6h.7c.6 0 .7-.1.6-.4a118.6 118.6 0 0 1-1.2-4.6l-.1 2.4m321.5 0c-.3 2.5 0 5.2.6 5.2.7 0 .7 0 0-3.5-.4-2-.6-2.4-.6-1.7m-319.5-.3c-.7.2-.7.2 0 .2.3 0 .6.2.7.4l.1-.3v-.5l-.8.2m333.4 3.3c0 2.5 0 3.5.2 3.7.5.5.8 0 .8-1.7 0-.8 0-1.3-.1-1.2 0 .2-.3-.7-.5-2l-.4-2.2v3.4m-349 .4c-.2 4.1 0 6.1.6 6.1.7 0 .7.2 0-4.4l-.5-3.6-.1 2m287.4.8c0 .4.2.6.3.5v.3c0 .2 0 .3.2.2.2-.1.2 0 0 .2 0 .2 0 .4.2.4.1 0 .2.1 0 .3 0 0 0 .2.2.2.1 0 .2.1.1.2l.1.3c.2 0 .3 0 .2.2-.3.5 2.4 5.2 2.9 5 .4 0-3-7-4.1-8.3v.5m26.6.3c0 .5 0 .7.1.4v-1 .6m34.5 5V91l.2-2.2v-2.6c-.1-.2-.2.8-.2 2.2m-35.3-1.2c0 .6 0 .7.1.4v-1 .6m-301 1.5V91h.6c.6 0 .7 0 .5-.4a15 15 0 0 1-.7-2.2l-.5-1.8v2.2m351.7.2c.2 2.2.2 2.3.8 2.1.4-.1.4-.1-.1-1.8-.8-2.2-.9-2.3-.7-.3m-27.6-.4c-.3 2.2 0 3.9.6 3.9.7 0 .7.1 0-2.5-.4-2-.5-2-.6-1.4M132.9 90c-2 .7-6.2 3.6-5.3 3.6l5.3-1c4-.7 5.2-.8 5.5-.6.3.2.3.2.2 0-.1-.2.4-.4 1.5-.6 2-.3 2-.5-.1-1.2-2.3-.8-5.1-.9-7.1-.2M58 93.8V98h.6c.7-.2.7-.2 0-4.8l-.6-3.6v4.2M257.5 91c-.3.2-.5.4-.3.4l.8-.4.4-.3-.9.3M34.4 93v2c.2-.2.3-3.6.1-3.8l-.1 1.9m301.5-1v.3-1 .6m-82 .6c-2 .8-2.5 1-2 1.1.5.1 1.7-.4 4-1.7 1.5-.9.9-.7-2 .6M33.1 96c0 1.8 0 1.9.6 1.9.5 0 .6-.1.5-.5l-.6-1.8-.5-1.4V96m139.1-.2v.6H177l-2.2-.6c-2.6-.7-2.5-.7-2.5 0m187.6-.2v1l.2 1.8c0 .7.1.8.6 1 .8 0 .8.1 0-2-.6-2-.6-2-.8-1.8M5.5 98.1c0 2.6.2 3.1 1 2.6.2-.1.2-.4 0-1.3a4 4 0 0 1-.1-1.5l-.1-.5c-.1 0-.4-.5-.5-1-.2-.7-.3-.5-.3 1.7M336.1 97v1l.2-.7c.2-.6.2-.9 0-1-.2-.3-.3 0-.2.7m51.4 1.8c.1 3.3.2 3.4.8 3.4.6 0 .6-.1 0-3.5-.7-3.4-.9-3.4-.8.1m-209.5 0 .1 2a693.7 693.7 0 0 0 9.5-1.2c1 0 1 0 .5-.2-.5 0-2.9-.6-5.3-1.3l-4.6-1.3s-.2.9-.2 2m31.8-1.3-4.2.6v.6c-.1.4 0 .7.2.7l-.3.2c-.4.1 0 .2.8 0 1.1 0 1.4 0 1.2.3-.1.2 0 .2.8 0 .6 0 1 0 1.1.2.1.2.5.2.9.1l.8.1c0 .2.5.2.9.1h.6c0 .2.5.3 1.3.3h1.4V99c0-.9 0-1.8-.2-2-.1-.4-.2-.4-5.3.4m43.5 0v.5-1 .6m-111 .5h.8-.8m30 2.1c0 .6 0 .6 2 .6h2l-1.7-.6c-2-.7-2.3-.7-2.3 0m44.2 0c0 .6 0 .6 2 .6h2l-1.8-.6c-2-.7-2.2-.7-2.2 0m-98.9 1-.8 1 1-.9.8-.9c0-.2-.2 0-1 .8m50.7.3v.7h4l-2.8-1-1.2-.4v.7m52.5 0v.7h1.8c2.1 0 2.1 0-.1-.8l-1.7-.6v.7m4 1.4c0 .7 0 .7 2.3 1.2l2.7.7c.4.1.5 0 .5-.6 0-.7 0-.7-2.3-1.2a286 286 0 0 1-2.7-.7c-.4 0-.5 0-.5.6m51.8-.6.8.8.8.7-.7-.8c-.7-.7-.9-.9-.9-.7m57.3 3v2.4l.6-.1.5-.3a19 19 0 0 0-.7-3.2l-.4-1.3v2.5m30-1.4 2.2 1.3 2.2 1.1v-.7c0-.6-.1-.7-1.8-1l-2.1-.7c-.3-.2-.4-.1-.4 0m-304.7 1 .1 1.6c0 .8.1 1 .5 1 .3 0 .5.1.5.3 0 .1 0 .2.1.1.2-.2-.9-3.5-1.1-3.5-.2 0-.2.2-.1.5m52.5 2.2-.7.8.8-.7c.7-.7.9-.9.7-.9l-.8.8M4.1 110.6c0 2.5 0 2.5.5 2.5.4 0 .6.2.7.6.1.4.1.4.2-.1 0-.6-1.1-5.2-1.3-5.5l-.1 2.5m1.4-1.8c0 .5 0 .7.2.4v-.8c-.1-.2-.2 0-.2.4m254.2 1s.8 1 1.8 1.9l1.9 1.8-1.8-1.9c-1.7-1.7-2-2-2-1.7m25.8 1.2 1 .8-.7-.8-1-.8.7.8m38.7 0 1.9 1.1 2.7 1.6.9.6v-.6c0-.5-.3-.7-2.4-1.6l-3-1.2m64.8 2.1c-.2 2.3-.1 2.7.6 2.7s.7-.1 0-2.7l-.5-2-.1 2M131 113l-1 1 1.1-.9 1-1-1 1m-66.3.8c0 .5.2.5 1.5.5H68l-1.2-.5c-1.5-.5-1.8-.5-1.8 0m85.8 1.5-1.2 1.3 1.3-1.2 1.2-1.3-1.3 1.2M5 117.3v.6c.2.2.4-.2.3-.6 0-.5 0-.5-.3 0m120.2 2-1 1 1.2-1 1-1.2c-.1 0-.7.5-1.2 1.1m169.9 2.1.8.8.7.7-.7-.8c-.6-.7-.8-.9-.8-.7m-45 2.6.2 1 .1.5c.1 0 .3.2.4.7.2.6.4.8 1 .8.8.1.8.1-.5-1.8-1.2-1.8-1.5-2-1.2-1.2m24 0 .8.8.7.7-.7-.8c-.6-.7-.8-.8-.8-.7M4.6 125.3c0 .6 0 .8.1.5v-1l-.1.5m385.3 2.9c-.3.3-.4.7-.3 1.9v1.5-1.5c.1-1.1.2-1.6.6-1.8l.3-.4c-.1-.1-.4 0-.6.3m-385.3 8c0 .6 0 .9.1.5v-1.2l-.1.7m385 2.5v1-2 1m-244.7 8.2c0 .6 0 .6 1.7.6h1.7l-1.2-.5c-2.3-.8-2.2-.8-2.2-.1M5 146.9c0 .6.5 1 .5.4 0-.3-.1-.5-.2-.5-.2 0-.3 0-.3.2m384 2-.1 2.3c-.2.4 0 .5.6.5.9 0 .9 0 .2-2.5-.6-2.5-.7-2.5-.7-.4m-248.4-1c-.3.2-.3.3 0 .3l.2.4c0 .3.4.3 1.7.3h1.8l-1.6-.6c-1.8-.6-1.7-.6-2.1-.3m107.6.3c0 .6 0 .6 1.9.6h1.8l-1.6-.6c-2-.7-2-.7-2 0m-111.6.8c-.8.8-.2 1.3 1.8 1.2h2l-1.5-.5-1.7-.7c-.2-.2-.4-.2-.6 0m-7.1 1.4v1.3h2.7l-1.3-1.3-1.3-1.3-.1 1.3m123-.7v.6h5l-2.1-.7c-2.8-.7-3-.7-3 0M4.1 151.3v1.8h1.4l-.6-1.7C4 149 4 149 4 151.2M258 151v.7h1.8c2.2 0 2.2 0-.1-.8l-1.7-.6v.7m37.2 8.4c0 1.8 0 1.8.6 1.8.8 0 .8 0 0-2l-.5-1.7v1.9m-288.6.1c0 .2-.3.3-.7.4-.6 0-.6 0 .1.1.8 0 1.3-.3.8-.6l-.2.1m380.8 1.8c0 2.5 0 2.8.7 2.8s.7 0 0-3.1c-.4-2-.6-2-.7.3m-382 .8v2h1.4l-.6-1.6-.6-2c-.1-.2-.2.5-.2 1.6m291.2 3.7v2.4h.6c.7 0 .7.1 0-2.5l-.6-2.2v2.3m1.4 1.4.2.7c.2.3.3.3.3 0 0-.2-.1-.5-.3-.7-.2-.3-.2-.3-.2 0m88.2 1.9-.2 1.4c0 .3.2.4.7.5.6 0 .8 0 .7-.3l-.5-1.5c-.5-1.6-.5-1.6-.7-.1M8 173.2l.1 2c.2-.2.2-3.6 0-3.8v1.9m375.3 6.5c-.2 1.8 0 2.3.6 2.3.7 0 .7 0 .2-1.7-.6-1.8-.7-1.9-.8-.6m-248.4 1.7c0 .6 0 .6 2 .6h2l-1.7-.6c-2.1-.7-2.3-.7-2.3 0m120 0c0 .6 0 .6 2 .6h2l-1.7-.6c-2-.7-2.3-.7-2.3 0m-131 1.3c0 .6.1.7.7.8 1 .1 3.1-.2 2.6-.4l-3.2-1.1v.7m15 .3c0 .4 0 .6.1.4v-.9l-.1.5m-5.5-.4c.2.1.6.1.8 0h-.8m116.7 2.8a82 82 0 0 1-.7 3.1c0 .3 0 .4.6.4h.8v-3c0-3.9 0-3.9-.7-.5m-142.5-2c-.1 0-.3.3-.3.6v.6h3.8c2 0 3.3-.1 2.8-.2-.8 0-.9-.1-.5-.3l-.8-.1-2.3-.2-1.5-.2c-.4 0-.7 0-.7-.2h-.5m168 .6v.6h4.2c2.4 0 3.9 0 3.4-.1l-1.3-.3a57.5 57.5 0 0 1-5.2-.6c-1-.2-1.1-.2-1.1.4m-132.4 3v2H144.7l-.5-1.7a91 91 0 0 0-.7-2l-.1 1.7m-5.9 7.6c-.4.4-.8.7-.9.6 0 0-.2 0-.2.2 0 .4.4.2 1.2-.6l.7-.9-.8.7m161.7 24c0 .5 7.3 4.7 8.2 4.7 1.7 0-5.1-4.5-8-5.2-.1 0-.2.1-.2.5M35.8 220c0 .6.1.7 1.8 1.3 2.4.8 2.4.8 0-.7l-1.8-1.3v.7m4 1.5c.1.7.2.7.2.3.1-.4 0-.7 0-.8-.2-.2-.3 0-.2.5m8.4 4 .1.8 6.5 1.3c.4 0 .5 0 .4-.6l-.1-.7h-2c-1.6 0-2-.1-2-.4 0-.2-.3-.4-.7-.5l-1.4-.3c-.8-.2-.8-.2-.8.5m265.4-.5 3.1 2.2.7.4-.2-.8c-.1-.6-.3-.8-1.3-1.1l-2.3-.7m-236 1.3h.9-1m261.9.6v.7h1.8c2.2 0 2.1 0-.1-.8l-1.7-.6v.7m1.6-.6h1-1m-267.8.3h1c.2-.1 0-.2-.6-.1h-.4m263 0h1-1m-4.5.3h1c.4 0 .1-.1-.5-.1s-.8 0-.5.1m-4.6.2h1.1-1.1m-266.8.3h1l-.6-.1h-.4m262.3 0h1-1m-266.6.3h1-1m262 0c.5 0 .6.3.6.7v.6h14.9l-6.5-.6a1437.7 1437.7 0 0 1-9-.7m-260 .7v.6h13.7l-6.2-.6c-8-.7-7.5-.7-7.5 0" fill="#c9c9b0"/>
<path d="M54 42.2c0 .6.2.6 2.6 1.3l2.6.6v-.7c0-.6 0-.6-2.5-1.2-3-.8-2.8-.8-2.7 0m281.2.7c-.3.3-.1 1.3.3 1.2a119.7 119.7 0 0 1 4.6-1.3h-4.9m-74.6 3.6v1.8h1.4l-.6-1.7c-.7-2.3-.8-2.3-.8-.1M254 46c0 .7 1 1 2 .5.8-.3.7-.4-.4-.6l-1.1-.3c-.4-.1-.5 0-.5.4m5.3.3c0 .5.1.7.2.4v-1c-.1-.1-.2.1-.2.6m0 3.8c0 .6.1.8.2.5v-1c-.1-.2-.2 0-.2.5m74.7 8.3v9h.6c.7 0 .7.8 0-9.9l-.5-8v9M59.1 55.1l.1 7.7.2 3.2h.6c.6 0 .6 0 .4-1.5L60 57c-.5-7.4-.8-8-.8-1.8m198.5-.7c-.1.6.1 4.2.3 3.7a12 12 0 0 0-.3-3.7M120 57.1l-.1 1.7c-.1.3 0 .4.6.4s.8-.1.7-.4l-.6-1.6c-.4-1.7-.6-1.7-.6 0m215.2 1.5V60v-2.5 1.2m-87.8 12a327 327 0 0 1-9 14.4l-1 1.6 2.3-1.9A65 65 0 0 0 251 71.3c2-3 4.8-12.2 4-13l-7.6 12.3m9.2-11.6c0 .2.2.4.6.5l.6-.1c0-.1-.2-.2-.5-.2s-.5-.1-.6-.3c0-.2-.1-.2-.1 0M59 66.3c0 .6 0 .7.1.4v-1 .6m276.3.4v.4c.1-.2.1-.6 0-.8v.4M15.3 68.4c0 .6.2.8 2 2 2.4 1.4 4 1.7 2 .3-.7-.5-1.1-1-1-1 0-.2 0-.3-.1-.2-.2.1-.7-.1-1.3-.6l-1.3-1c-.2-.1-.3 0-.3.5m359.9 0c0 .6 0 .6 2 .6h2l-1.7-.6c-2.1-.8-2.3-.8-2.3 0m-20.8 2.4-.1 1.9c-.1.3 0 .3.7.3h.8l-.6-1.7c-.7-2.2-.8-2.2-.8-.5M15 72.1l-.7.8.8-.7.8-.8c0-.1-.2 0-.9.7m357.7 3.5c0 1.2 0 1.7.3 1.7.7 0 .8-.3.2-1.9l-.5-1.5v1.7m-335.4 1c0 1.9 0 2 .6 2 .8 0 .8 0 0-2.1l-.5-1.7v1.9m-16.6-1c-.3 1.5 0 2.8.7 2.8.6 0 .7.1-.2-2.2-.3-1.2-.4-1.2-.5-.6M356 78.1c0 1.8 0 1.9.5 1.9.8 0 .8 0 0-2l-.5-1.7V78m-297.7-.2a137.7 137.7 0 0 0-.3 13.8l.1-3.4h.6c.7 0 .7-.1.3-3.1a82.3 82.3 0 0 1-.7-7.3m-22.4 6.5V87h.7c.7 0 .8 0 .6-.6a120 120 0 0 1-1.2-4.2l-.1 2.3m299.5 9.1v10.7c0 .3.1.5.5.5h.6V101c0-2.1 0-3.6-.1-3.4l-.5-7-.4-7.3v10.3M22 86.4c0 1.1 0 1.6.1 1v-2 1m335.2.2c-.2 2.7 0 3.1.6 3.1.7 0 .7 0 0-2.7l-.6-2.2v1.8m-20.7 3.9v2a58.8 58.8 0 0 0 0-2m34.5-1.2c-.2 2.9-.1 3 .7 3 .5 0 .5 0 .4-.5a65.9 65.9 0 0 1-1-4.9l-.1 2.4m-139.2-1a58.2 58.2 0 0 1-22.5 7.4c-7.1 0-8.8 0-8.5-.5 0-.2 0-.2-.2 0h-1.2c-1.1 0-1 .7.3 2 1.3 1.4 5.6 2.3 5.7 1.3.1-.6 9.2-2.2 9.5-1.6a91 91 0 0 0 20.3-8.3l.5-.4-.5-.5c-.7-.8-1-.7-3.4.6m154.3 1.5c0 1 0 1.4.3 1.5.4 0 .4 0 .2-.2s-.3-.8-.4-1.5v-1.2l-.1 1.4m-364 1.8c0 2.2 0 2.2.6 2.2.7 0 .7.2-.1-2.8l-.5-1.6v2.2M7 92.3c-.2 2.3 0 2.7.6 2.7.7 0 .7.1.1-2.2-.2-1-.4-2-.3-2.1l-.1-.2c-.1 0-.3.8-.3 1.8m251-1h1-1M34.6 93.4l-.1 1.7h.6c.6-.2.6-.2.3-1.1-.7-2.3-.7-2.4-.8-.6m351.6.7v2.3h.6c.7 0 .9-1 .3-1.8-.2-.2-.2-.6-.2-1v-.3c0 .2-.2 0-.4-.6-.3-.9-.3-.8-.3 1.4m-27.6-.6.1 1.6c0 1.2 0 1.3.6 1.4h.6c0-.5-1-3.4-1.3-3.4 0 0-.1.1 0 .4M142 96V98h1.4l-.6-1.8c-.7-2.2-.8-2.2-.8 0m109.1.7v2.5h.6c.7 0 .7 0 0-2.8l-.6-2.1v2.4m63.8-1.6c.7 3 1 4 1.5 4.1.9.3.8 0-.4-2.4l-1-1.7m45 3v.5-1.2.7m-302 3.2v3.4h.6c.7 0 .7.2.1-2.9a97 97 0 0 1-.5-3.2l-.2 2.7m-52 .2c0 .6 0 .6-.3.2-.1-.3-.2.4-.2 2v2.4h1.4l-.5-1.6c-.3-1-.4-2-.3-2.6v-1l-.1.6m108.7 2.5-2.2 2.2 2.2-2.1c2-2 2.4-2.3 2.2-2.3l-2.2 2.2m273 1.8c-.1 2.8 0 2.9.4 3 .8.2.8.1.3-2.5-.6-3.7-.8-3.8-.8-.5m-22.7-1 1 .8-.7-.8-1-.8.7.8m-305.7 1.4c0 1.3 0 1.3.6 1.3s.6 0 .2-.1c-.5-.1-.6-.3-.6-1.4l-.1-1.2v1.4m222.8 1.4-2.5-2.6 2.5 2.6M5.5 110.3c0 .4 0 .6.2.4v-.9c-.1-.2-.2 0-.2.5m59.2 3.5c.1.6.1.6 2.1.7 1.1 0 2 0 1.9-.1-.1-.1-1-.2-2-.1-1.7 0-2.6-.6-1.5-1 .2 0 .1-.1-.1-.2-.4 0-.4.2-.4.7M129 115l-1.2 1.2 1.3-1.1c1.1-1.1 1.3-1.4 1.1-1.4l-1.2 1.3M4 117.6c0 2.8.1 3.7.4 3.8.2.1.4.4.4.6.1.2.2.1.2-.2l.2-.6v-2.6l-.1-.7c-.2 0-.3-.6-.4-1.3-.4-3-.6-2.6-.6 1m260.3-3.2.8.8.8.7-.7-.8c-.7-.7-.9-.9-.9-.7m124.7 8.3c0 4.3 0 5.4.2 5.5 1 .4 1-.4-.1-10.2l-.1 4.7m-119.2-3 2.2 2-2-2-2-2 1.8 2m23.7.2.7.8.8.7-.7-.8c-.6-.7-.8-.9-.8-.7m-170.7 1.5-1 1c.1 0 .7-.4 1.3-1l.9-1.1-1.2 1m-24.6.8-1 1c.2 0 .7-.4 1.3-1l.9-1.1-1.2 1M87 125.8v2.5h.6c.7 0 .7-.1 0-2.8l-.6-2.1v2.4m219.3.6c0 1.8 0 1.9.6 1.9.7 0 .7 0 0-2l-.6-1.7v1.8M4.6 130.7a79.7 79.7 0 0 0 0 0m385 3.4v1.4a26.2 26.2 0 0 0 0-1.4m-.5 7.5c0 4.6 0 4.6.6 4.7.6 0 .6.1.1-3.8-.7-5.5-.7-5.6-.7-.9M4.8 140.1c0 .5 0 .6.1.4.1-.2.1-.6 0-.8v.4m-.8 5.8v3h.8c1 .2 1 .2.6-.4a20 20 0 0 1-.7-2.9c-.7-3.3-.7-3.3-.7.3m290 7c1 4.2 1.1 4.4 1.7 4.4.7 0 .7 0 .3-.9l-.2-.9-.2-.1c-.2 0-.2-.2-.1-.4 0-.2 0-.3-.2-.2-.2.1-.2 0 0-.3v-.2c-.2 0-.5-.3-.8-.9-.3-.6-.5-.8-.5-.5m93.5 3.2c0 2.2 0 2.4.5 2.5.7.2.8 0 .5-1.3l-.2-1.6c0-.2 0-.3 0 0-.1.1-.3-.2-.5-.8-.3-1-.3-1-.3 1.2m-382 1.4-.1 2.4H6c.7 0 .7 0 0-2.7l-.6-2.2v2.5m91.2 3-.2 1.7c-.1.5 0 .6.6.6.9 0 .9 0 0-2.3l-.4-1.2v1.2m289.5 4.5c0 1.8.1 2.2 1 1.9.3-.2.3-.4-.3-2l-.7-1.8v1.9M6.9 166.4c0 1.8 0 1.9.6 1.9.7 0 .7 0 0-2l-.5-1.7v1.8m88.3 5v5.2h1.1l-.1-1.8c0-1-.3-3.4-.6-5.2l-.4-3.4v5.2m202.6-1c0 4.5 0 4.8.8 4.8.5 0 .6-.1.5-.6a117 117 0 0 1-1.2-8l-.1 3.9m88.3-2.4v.9c.3 0 .3-1.2.2-1.5-.2-.2-.2 0-.2.6m-1.2 4c0 1.6 0 1.6.5 1.6h.6l-.4-1.2-.6-1.6-.1 1.2M8.4 173.4c0 1.8 0 1.8.6 1.8s.6 0-.2-2.3l-.4-1.2v1.7m375 6.1v.3c.1-.7.2-1 .4-.9.2.1.2 0 0-.2-.5-.6-.5-.5-.5.8m-254.9 3.2c0 .6 0 .6 2 .6 2.4 0 2.4 0-.2-.7l-1.8-.4v.5m132.3-.2c-.3.6.3.8 2.3.7h2l-2-.5c-1.9-.5-2.2-.5-2.3-.2m-121.3.3-1.3 6.5-1.3 6c.3.3 3.3-3.3 4-4.7 1.4-2.5 1.1-5.3-.8-7.7l-.6-.7v.6m-22.2 1.2c.1.6.2.6 2.3.7h2.1l-1.5-.4c-2.8-.9-3-.9-2.9-.3m154.6-.3c-.6.6.2 1 1.7 1h1.6l-1-.4c-1.5-.5-2.2-.7-2.3-.6m-159.8.5h.8l-.4-.1h-.4m170.2.1c.1.2.4.3.6.3.3 0 .5-.1.5-.3l-.6-.2c-.4 0-.6.1-.5.2m-170.9.5-3.8.2h4.7c2.6 0 4.4 0 4-.2a250.1 250.1 0 0 1-4.9 0m168.8 0-4.3.2h5.2c3 0 5 0 4.7-.2-.3 0-.8-.2-1-.1l-4.6.1m100 3c-.7 2.4-.6 2.8 0 2.8s.8-1.6.6-3.7l-.2-1.2-.5 2.2M15.2 192c1.5 4.1 4.1 9.3 4.7 9.4.8 0 1 .4-2-4.8-2.4-4.4-3.1-5.6-2.7-4.6m241.1 2 1 .7-.7-.8-1-.8.7.8m120.1 1.8c-1.2 3-1.1 2.9-.4 2.9.6 0 .9-1 1.2-3.3l.2-1.5c.3-1.2 0-.8-1 1.9m-95 12c0 .6.2.7 1.8 1.2 2 .7 2.1.7 1 0l-.8-.8c.1-.2 0-.2-.1-.1-.2.1-.4 0-.6-.2-.6-.8-1.5-.9-1.4-.2m84.4 4-1.6 1.6 1.7-1.6c1.6-1.6 1.9-1.8 1.7-1.8l-1.8 1.7m-264.4 1c-1.6 1.1-2 1.5-2 2 0 .7-.2.7 2.7-.7 3-1.5 2.7-1.3 2-2-.6-.7-.4-.8-2.7.8m187-.8c0 .5.6 1 5.5 3.4 5.5 2.7 5.5 2.7 5.5 2 0-.6-.3-.8-3.5-2.4a36.5 36.5 0 0 1-4-2s-.2 0-.2-.2c0-.1 0-.2-.2 0-.1 0-.2 0-.2-.2l-.2-.2c-.4.1-1.3-.3-1.1-.5 0-.1 0-.2-.3 0-.2 0-.4 0-.3-.1 0-.2-.1-.3-.4-.3-.5 0-.6 0-.6.5m-256.7 2.8 1 1c.1 0-.2-.5-.7-1l-1-1c-.2 0 .2.4.7 1m8.5 6.8c0 .7 0 .8 2 1.3 3.1.8 3.3.8 3.2 0 0-.5-.2-.6-2.1-1.1l-2.6-.7c-.4-.1-.5 0-.5.5m10.7 3.9c-.2.2-.2.2 0 .2.1 0 .3.2.3.4 0 .3.3.4 2 .3h2l-1.9-.6c-2-.6-1.9-.6-2.4-.3m13.3.9h-9v.7c.2.7.4.7 6.8.3 1.8-.1 3.4-.2 3.5-.1 0 0 2 0 4.4-.3l5.9-.4h1.5l-2-.2h-11m258 0h-5v.7c.1.6.2.6 1.4.6l20.4-1.1c1-.2-10-.3-16.8-.2" fill="#b4b48c"/>
</g></svg>